<?xml version="1.0" encoding="UTF-8" standalone="no"?>
<svg
   viewBox="0 0 1200 380"
   width="1200"
   height="380"
   version="1.1"
   id="svg119"
   sodipodi:docname="masthead.svg"
   inkscape:version="1.4.3 (0d15f75, 2025-12-25)"
   xmlns:inkscape="http://www.inkscape.org/namespaces/inkscape"
   xmlns:sodipodi="http://sodipodi.sourceforge.net/DTD/sodipodi-0.dtd"
   xmlns="http://www.w3.org/2000/svg"
   xmlns:svg="http://www.w3.org/2000/svg">
  <sodipodi:namedview
     id="namedview119"
     pagecolor="#ffffff"
     bordercolor="#000000"
     borderopacity="0.25"
     inkscape:showpageshadow="2"
     inkscape:pageopacity="0.0"
     inkscape:pagecheckerboard="0"
     inkscape:deskcolor="#d1d1d1"
     inkscape:zoom="0.51166667"
     inkscape:cx="600"
     inkscape:cy="190.55375"
     inkscape:window-width="1129"
     inkscape:window-height="848"
     inkscape:window-x="0"
     inkscape:window-y="34"
     inkscape:window-maximized="0"
     inkscape:current-layer="svg119" />
  <defs
     id="defs25">
    <!-- Aged paper fill -->
    <radialGradient
       id="paper"
       cx="50%"
       cy="50%"
       r="65%">
      <stop
         offset="0%"
         stop-color="#F2E6C9"
         id="stop1" />
      <stop
         offset="100%"
         stop-color="#E4D4AB"
         id="stop2" />
    </radialGradient>
    <!-- Fine crosshatch for engraved texture -->
    <pattern
       id="engrave"
       patternUnits="userSpaceOnUse"
       width="5"
       height="5"
       patternTransform="rotate(30)">
      <line
         x1="0"
         y1="0"
         x2="0"
         y2="5"
         stroke="#8B7D5E"
         stroke-width="0.3"
         opacity="0.15"
         id="line2" />
    </pattern>
    <pattern
       id="engrave2"
       patternUnits="userSpaceOnUse"
       width="5"
       height="5"
       patternTransform="rotate(-30)">
      <line
         x1="0"
         y1="0"
         x2="0"
         y2="5"
         stroke="#8B7D5E"
         stroke-width="0.3"
         opacity="0.12"
         id="line3" />
    </pattern>
    <!-- Acanthus leaf scroll unit (reusable) -->
    <g
       id="acanthus-scroll-r">
      <!-- Main spiral -->
      <path
         d="M0,0 C8,-6 18,-8 28,-4 C22,-10 12,-14 4,-10 C14,-16 26,-14 34,-6 C28,-14 16,-20 6,-16 C18,-22 32,-18 40,-8 C36,-4 30,0 24,2 C18,4 10,2 0,0Z"
         fill="none"
         stroke="#3D3424"
         stroke-width="1.2"
         id="path3" />
      <!-- Inner detail leaves -->
      <path
         d="M6,-4 C12,-8 20,-8 26,-4"
         fill="none"
         stroke="#3D3424"
         stroke-width="0.6"
         id="path4" />
      <path
         d="M10,-8 C16,-12 24,-10 30,-6"
         fill="none"
         stroke="#3D3424"
         stroke-width="0.6"
         id="path5" />
      <!-- Spiral terminal -->
      <path
         d="M34,-6 C38,-2 36,4 30,6 C34,6 40,2 38,-4"
         fill="#3D3424"
         opacity="0.7"
         id="path6" />
      <!-- Leaf veins -->
      <path
         d="M8,-2 L14,-6 M12,0 L18,-4 M16,0 L22,-2"
         fill="none"
         stroke="#3D3424"
         stroke-width="0.4"
         opacity="0.6"
         id="path7" />
    </g>
    <g
       id="acanthus-scroll-l">
      <path
         d="M0,0 C-8,-6 -18,-8 -28,-4 C-22,-10 -12,-14 -4,-10 C-14,-16 -26,-14 -34,-6 C-28,-14 -16,-20 -6,-16 C-18,-22 -32,-18 -40,-8 C-36,-4 -30,0 -24,2 C-18,4 -10,2 0,0Z"
         fill="none"
         stroke="#3D3424"
         stroke-width="1.2"
         id="path8" />
      <path
         d="M-6,-4 C-12,-8 -20,-8 -26,-4"
         fill="none"
         stroke="#3D3424"
         stroke-width="0.6"
         id="path9" />
      <path
         d="M-10,-8 C-16,-12 -24,-10 -30,-6"
         fill="none"
         stroke="#3D3424"
         stroke-width="0.6"
         id="path10" />
      <path
         d="M-34,-6 C-38,-2 -36,4 -30,6 C-34,6 -40,2 -38,-4"
         fill="#3D3424"
         opacity="0.7"
         id="path11" />
      <path
         d="M-8,-2 L-14,-6 M-12,0 L-18,-4 M-16,0 L-22,-2"
         fill="none"
         stroke="#3D3424"
         stroke-width="0.4"
         opacity="0.6"
         id="path12" />
    </g>
    <!-- Large corner filigree -->
    <g
       id="corner-filigree">
      <!-- Multiple layered scrolls creating dense Victorian corner -->
      <path
         d="M0,0 C15,-10 35,-15 55,-10 C45,-20 25,-22 10,-15 C30,-28 55,-25 70,-12 C60,-28 35,-35 15,-25 C40,-38 68,-30 82,-14 C75,-5 60,2 45,4 C30,6 15,4 0,0Z"
         fill="none"
         stroke="#3D3424"
         stroke-width="1.3"
         id="path13" />
      <!-- Inner scroll -->
      <path
         d="M5,-3 C18,-12 38,-14 52,-8 C42,-18 22,-20 10,-12"
         fill="none"
         stroke="#3D3424"
         stroke-width="0.8"
         id="path14" />
      <path
         d="M12,-8 C25,-16 45,-16 58,-8"
         fill="none"
         stroke="#3D3424"
         stroke-width="0.6"
         id="path15" />
      <!-- Tight spiral end -->
      <path
         d="M70,-12 C76,-6 74,2 66,6 C72,4 78,0 76,-8 C74,-4 70,0 64,2"
         fill="#3D3424"
         opacity="0.5"
         id="path16" />
      <!-- Leaf detail -->
      <path
         d="M20,-5 C28,-12 40,-12 50,-6 M25,-10 C33,-16 45,-14 55,-8"
         fill="none"
         stroke="#3D3424"
         stroke-width="0.5"
         opacity="0.5"
         id="path17" />
      <!-- Small acanthus offshoots -->
      <path
         d="M30,0 C35,-4 42,-3 46,0 C42,-6 36,-6 30,0Z"
         fill="#3D3424"
         opacity="0.3"
         id="path18" />
      <path
         d="M45,-2 C50,-8 58,-6 62,-2 C58,-10 50,-10 45,-2Z"
         fill="#3D3424"
         opacity="0.3"
         id="path19" />
    </g>
    <!-- Horizontal scroll connector -->
    <g
       id="h-scroll">
      <path
         d="M0,0 C10,-8 25,-10 40,-6 C30,-14 15,-14 5,-8 C20,-18 40,-15 50,-4 C45,0 35,4 25,4 C15,4 5,2 0,0Z"
         fill="none"
         stroke="#3D3424"
         stroke-width="1"
         id="path20" />
      <path
         d="M50,-4 C54,0 52,6 46,8 C52,6 56,2 54,-4"
         fill="#3D3424"
         opacity="0.6"
         id="path21" />
    </g>
    <!-- Cartouche / banner shape for "KARAM & SPRAGUE'S" -->
    <g
       id="cartouche">
      <path
         d="M0,0 L240,0 C248,0 252,4 254,12 L258,30 C260,38 256,46 248,48 L244,56 C240,64 232,68 224,68 L16,68 C8,68 0,64 -4,56 L-8,48 C-16,46 -20,38 -18,30 L-14,12 C-12,4 -8,0 0,0Z"
         fill="url(#paper)"
         stroke="#3D3424"
         stroke-width="2"
         id="path22" />
      <!-- Inner line of cartouche -->
      <path
         d="M6,6 L234,6 C240,6 244,10 246,16 L250,32 C252,38 248,44 242,46 L238,52 C234,58 228,62 222,62 L18,62 C12,62 6,58 2,52 L-2,46 C-8,44 -12,38 -10,32 L-6,16 C-4,10 0,6 6,6Z"
         fill="none"
         stroke="#3D3424"
         stroke-width="0.8"
         id="path23" />
      <!-- Decorative notch top center -->
      <path
         d="M105,0 L110,-6 L120,-8 L130,-6 L135,0"
         fill="url(#paper)"
         stroke="#3D3424"
         stroke-width="1"
         id="path24" />
      <!-- Decorative notch bottom center -->
      <path
         d="M105,68 L110,74 L120,76 L130,74 L135,68"
         fill="url(#paper)"
         stroke="#3D3424"
         stroke-width="1"
         id="path25" />
    </g>
  </defs>
  <!-- ==================== BACKGROUND ==================== -->
  <rect
     width="1200"
     height="380"
     fill="url(#paper)"
     id="rect25" />
  <rect
     width="1200"
     height="380"
     fill="url(#engrave)"
     id="rect26" />
  <rect
     width="1200"
     height="380"
     fill="url(#engrave2)"
     id="rect27" />
  <!-- ==================== TRIPLE BORDER ==================== -->
  <!-- Outer heavy rule -->
  <rect
     x="8"
     y="8"
     width="1184"
     height="364"
     rx="2"
     fill="none"
     stroke="#3D3424"
     stroke-width="3"
     id="rect28" />
  <!-- Middle thin rule -->
  <rect
     x="15"
     y="15"
     width="1170"
     height="350"
     rx="1"
     fill="none"
     stroke="#3D3424"
     stroke-width="0.6"
     id="rect29" />
  <!-- Inner heavy rule -->
  <rect
     x="20"
     y="20"
     width="1160"
     height="340"
     rx="1"
     fill="none"
     stroke="#3D3424"
     stroke-width="2"
     id="rect30" />
  <!-- ==================== CORNER FILIGREE (all 4 corners) ==================== -->
  <!-- Top-left -->
  <g
     transform="translate(30,30) scale(1,1)"
     id="g33">
    <use
       href="#corner-filigree"
       id="use30" />
    <use
       href="#corner-filigree"
       transform="scale(1,-1) translate(0,-10)"
       id="use31" />
    <!-- Extra fill scrolls -->
    <use
       href="#acanthus-scroll-r"
       transform="translate(5,15) scale(0.8)"
       id="use32" />
    <use
       href="#acanthus-scroll-r"
       transform="translate(10,30) scale(0.6)"
       id="use33" />
  </g>
  <!-- Top-right -->
  <g
     transform="translate(1170,30) scale(-1,1)"
     id="g37">
    <use
       href="#corner-filigree"
       id="use34" />
    <use
       href="#corner-filigree"
       transform="scale(1,-1) translate(0,-10)"
       id="use35" />
    <use
       href="#acanthus-scroll-r"
       transform="translate(5,15) scale(0.8)"
       id="use36" />
    <use
       href="#acanthus-scroll-r"
       transform="translate(10,30) scale(0.6)"
       id="use37" />
  </g>
  <!-- Bottom-left -->
  <g
     transform="translate(30,350) scale(1,-1)"
     id="g41">
    <use
       href="#corner-filigree"
       id="use38" />
    <use
       href="#corner-filigree"
       transform="scale(1,-1) translate(0,-10)"
       id="use39" />
    <use
       href="#acanthus-scroll-r"
       transform="translate(5,15) scale(0.8)"
       id="use40" />
    <use
       href="#acanthus-scroll-r"
       transform="translate(10,30) scale(0.6)"
       id="use41" />
  </g>
  <!-- Bottom-right -->
  <g
     transform="translate(1170,350) scale(-1,-1)"
     id="g45">
    <use
       href="#corner-filigree"
       id="use42" />
    <use
       href="#corner-filigree"
       transform="scale(1,-1) translate(0,-10)"
       id="use43" />
    <use
       href="#acanthus-scroll-r"
       transform="translate(5,15) scale(0.8)"
       id="use44" />
    <use
       href="#acanthus-scroll-r"
       transform="translate(10,30) scale(0.6)"
       id="use45" />
  </g>
  <!-- ==================== TOP BORDER SCROLLWORK ==================== -->
  <!-- Dense acanthus scrolls along top edge -->
  <g
     transform="translate(130,35)"
     id="g47">
    <use
       href="#acanthus-scroll-r"
       transform="scale(1.2)"
       id="use46" />
    <use
       href="#acanthus-scroll-l"
       transform="translate(80,0) scale(1.2)"
       id="use47" />
  </g>
  <g
     transform="translate(280,38)"
     id="g49">
    <use
       href="#h-scroll"
       transform="scale(1.1)"
       id="use48" />
    <use
       href="#h-scroll"
       transform="translate(60,0) scale(-1.1,1.1)"
       id="use49" />
  </g>
  <g
     transform="translate(500,35)"
     id="g51">
    <use
       href="#acanthus-scroll-r"
       transform="scale(1.1)"
       id="use50" />
    <use
       href="#acanthus-scroll-l"
       transform="translate(70,0) scale(1.1)"
       id="use51" />
  </g>
  <g
     transform="translate(680,38)"
     id="g53">
    <use
       href="#h-scroll"
       transform="scale(1)"
       id="use52" />
    <use
       href="#h-scroll"
       transform="translate(55,0) scale(-1,1)"
       id="use53" />
  </g>
  <g
     transform="translate(850,35)"
     id="g55">
    <use
       href="#acanthus-scroll-r"
       transform="scale(1.2)"
       id="use54" />
    <use
       href="#acanthus-scroll-l"
       transform="translate(80,0) scale(1.2)"
       id="use55" />
  </g>
  <g
     transform="translate(1000,38)"
     id="g56">
    <use
       href="#h-scroll"
       transform="scale(1)"
       id="use56" />
  </g>
  <!-- ==================== BOTTOM BORDER SCROLLWORK ==================== -->
  <g
     transform="translate(130,345) scale(1,-1)"
     id="g58">
    <use
       href="#acanthus-scroll-r"
       transform="scale(1.2)"
       id="use57" />
    <use
       href="#acanthus-scroll-l"
       transform="translate(80,0) scale(1.2)"
       id="use58" />
  </g>
  <g
     transform="translate(280,342) scale(1,-1)"
     id="g60">
    <use
       href="#h-scroll"
       transform="scale(1.1)"
       id="use59" />
    <use
       href="#h-scroll"
       transform="translate(60,0) scale(-1.1,1.1)"
       id="use60" />
  </g>
  <g
     transform="translate(500,345) scale(1,-1)"
     id="g62">
    <use
       href="#acanthus-scroll-r"
       transform="scale(1.1)"
       id="use61" />
    <use
       href="#acanthus-scroll-l"
       transform="translate(70,0) scale(1.1)"
       id="use62" />
  </g>
  <g
     transform="translate(680,342) scale(1,-1)"
     id="g64">
    <use
       href="#h-scroll"
       transform="scale(1)"
       id="use63" />
    <use
       href="#h-scroll"
       transform="translate(55,0) scale(-1,1)"
       id="use64" />
  </g>
  <g
     transform="translate(850,345) scale(1,-1)"
     id="g66">
    <use
       href="#acanthus-scroll-r"
       transform="scale(1.2)"
       id="use65" />
    <use
       href="#acanthus-scroll-l"
       transform="translate(80,0) scale(1.2)"
       id="use66" />
  </g>
  <g
     transform="translate(1000,342) scale(1,-1)"
     id="g67">
    <use
       href="#h-scroll"
       transform="scale(1)"
       id="use67" />
  </g>
  <!-- ==================== LEFT SIDE SCROLLWORK ==================== -->
  <g
     transform="translate(35,100)"
     id="g68">
    <use
       href="#acanthus-scroll-r"
       transform="rotate(90) scale(0.9)"
       id="use68" />
  </g>
  <g
     transform="translate(35,160)"
     id="g69">
    <use
       href="#acanthus-scroll-r"
       transform="rotate(90) scale(0.8)"
       id="use69" />
  </g>
  <g
     transform="translate(35,220)"
     id="g70">
    <use
       href="#acanthus-scroll-r"
       transform="rotate(90) scale(0.9)"
       id="use70" />
  </g>
  <g
     transform="translate(35,270)"
     id="g71">
    <use
       href="#acanthus-scroll-r"
       transform="rotate(90) scale(0.8)"
       id="use71" />
  </g>
  <!-- ==================== RIGHT SIDE SCROLLWORK ==================== -->
  <g
     transform="translate(1165,100)"
     id="g72">
    <use
       href="#acanthus-scroll-l"
       transform="rotate(-90) scale(0.9)"
       id="use72" />
  </g>
  <g
     transform="translate(1165,160)"
     id="g73">
    <use
       href="#acanthus-scroll-l"
       transform="rotate(-90) scale(0.8)"
       id="use73" />
  </g>
  <g
     transform="translate(1165,220)"
     id="g74">
    <use
       href="#acanthus-scroll-l"
       transform="rotate(-90) scale(0.9)"
       id="use74" />
  </g>
  <g
     transform="translate(1165,270)"
     id="g75">
    <use
       href="#acanthus-scroll-l"
       transform="rotate(-90) scale(0.8)"
       id="use75" />
  </g>
  <!-- ==================== INTERIOR FILIGREE FILLS ==================== -->
  <!-- Large scrolls flanking the title area -->
  <!-- Left interior scroll cluster -->
  <g
     transform="translate(60,110)"
     id="g80">
    <use
       href="#acanthus-scroll-r"
       transform="scale(1.5,1.3)"
       id="use76" />
    <use
       href="#acanthus-scroll-r"
       transform="translate(0,35) scale(1.3,1.1)"
       id="use77" />
    <use
       href="#acanthus-scroll-r"
       transform="translate(-5,65) scale(1.4,1.2)"
       id="use78" />
    <use
       href="#acanthus-scroll-r"
       transform="translate(0,95) scale(1.3,1.1)"
       id="use79" />
    <use
       href="#acanthus-scroll-r"
       transform="translate(5,125) scale(1.5,1.3)"
       id="use80" />
  </g>
  <!-- Right interior scroll cluster -->
  <g
     transform="translate(1140,110)"
     id="g85">
    <use
       href="#acanthus-scroll-l"
       transform="scale(1.5,1.3)"
       id="use81" />
    <use
       href="#acanthus-scroll-l"
       transform="translate(0,35) scale(1.3,1.1)"
       id="use82" />
    <use
       href="#acanthus-scroll-l"
       transform="translate(5,65) scale(1.4,1.2)"
       id="use83" />
    <use
       href="#acanthus-scroll-l"
       transform="translate(0,95) scale(1.3,1.1)"
       id="use84" />
    <use
       href="#acanthus-scroll-l"
       transform="translate(-5,125) scale(1.5,1.3)"
       id="use85" />
  </g>
  <!-- ==================== CARTOUCHE: "KARAM & SPRAGUE'S" ==================== -->
  <g
     transform="translate(75,150)"
     id="g90">
    <!-- Banner/cartouche shape -->
    <path
       d="M0,0 L210,0 C216,0 220,4 222,10 L226,28 C228,34 224,40 218,42 L216,48 C212,56 206,60 198,60 L12,60 C6,60 0,56 -4,48 L-6,42 C-12,40 -16,34 -14,28 L-10,10 C-8,4 -4,0 0,0Z"
       fill="url(#paper)"
       stroke="#3D3424"
       stroke-width="2.2"
       id="path85" />
    <!-- Inner decorative border of cartouche -->
    <path
       d="M8,6 L202,6 C208,6 212,10 214,14 L218,30 C220,34 216,38 212,40 L210,44 C206,50 200,54 194,54 L16,54 C10,54 4,50 2,44 L0,40 C-6,38 -8,34 -6,30 L-2,14 C0,10 4,6 8,6Z"
       fill="none"
       stroke="#3D3424"
       stroke-width="0.7"
       id="path86" />
    <!-- Decorative scrollwork on cartouche edges -->
    <path
       d="M-14,20 C-20,18 -24,22 -22,28 C-26,24 -22,16 -14,20Z"
       fill="#3D3424"
       opacity="0.6"
       id="path87" />
    <path
       d="M226,20 C232,18 236,22 234,28 C238,24 234,16 226,20Z"
       fill="#3D3424"
       opacity="0.6"
       id="path88" />
    <!-- Top notch ornament -->
    <path
       d="M90,-1 L95,-6 L105,-8 L115,-6 L120,-1"
       fill="url(#paper)"
       stroke="#3D3424"
       stroke-width="1"
       id="path89" />
    <circle
       cx="105"
       cy="-7"
       r="2.5"
       fill="#3D3424"
       id="circle89" />
    <!-- Bottom notch ornament -->
    <path
       d="M90,61 L95,66 L105,68 L115,66 L120,61"
       fill="url(#paper)"
       stroke="#3D3424"
       stroke-width="1"
       id="path90" />
    <circle
       cx="105"
       cy="67"
       r="2.5"
       fill="#3D3424"
       id="circle90" />
    <!-- Text: "KARAM & SPRAGUE'S" -->
    <path
       d="m 19.496035,26.856 q 0,0.16 -0.592,0.16 -0.512,0 -1.488,-0.016 -0.72,-0.016 -0.992,0 l -0.896,0.032 -0.72,0.016 q -0.352,0 -0.352,-0.144 0,-0.112 0.08,-0.128 0.096,-0.016 0.576,-0.032 0.256,0 0.256,-0.16 0,-0.064 -0.88,-1.296 l -2.352,-3.296 q -0.208,-0.208 -0.304,-0.336 v 4.064 q 0,0.72 0.112,0.864 0.128,0.128 0.816,0.16 0.4,0.016 0.4,0.16 0,0.144 -0.288,0.144 l -1.008,-0.016 q -1.008,-0.016 -2.0640001,-0.016 -0.16,0 -0.496,0.016 -0.32,0.016 -0.688,0.016 h -0.208 q -0.256,0 -0.256,-0.144 0,-0.144 0.528,-0.16 0.544,-0.016 0.656,-0.144 0.128,-0.128 0.128,-0.704 v -9.232 q 0,-0.224 -0.112,-0.304 -0.16,-0.096 -0.688,-0.096 -0.464,0 -0.464,-0.144 0,-0.128 0.224,-0.128 l 1.9360001,0.032 q 0.032,0 0.192,0 0.176,-0.016 0.32,-0.016 l 0.992,-0.016 h 0.656 q 0.176,-0.016 0.384,-0.016 0.192,0 0.192,0.144 0,0.112 -0.384,0.128 -0.64,0.032 -0.768,0.128 -0.112,0.08 -0.112,0.56 v 4.224 q 0.432,-0.352 2.912,-3.152 1.104,-1.248 1.104,-1.584 0,-0.112 -0.144,-0.128 -0.144,-0.032 -0.816,-0.032 -0.224,0 -0.224,-0.144 0,-0.16 0.384,-0.144 l 0.704,0.016 q 0.032,0 0.144,0 0.144,-0.016 0.256,-0.016 h 1.648 q 0.224,0 0.224,0.144 0,0.16 -0.256,0.16 -0.592,0 -0.816,0.08 -0.208,0.08 -0.512,0.384 -1.488,1.552 -3.104,3.44 0.272,0.384 1.536,2 0.88,1.104 2.512,3.216 0.72,0.96 0.944,1.152 0.224,0.176 0.656,0.176 0.512,0 0.512,0.128 z M 32.492043,26.84 q 0,0.128 -0.128,0.16 -0.112,0.016 -0.608,0.016 -0.128,0 -0.72,-0.016 -1.184,-0.032 -1.632,-0.032 -0.528,0 -0.928,0.016 -0.8,0.032 -1.088,0.032 -0.432,0 -0.432,-0.16 0,-0.16 0.912,-0.176 0.224,0 0.336,-0.032 0.256,-0.032 0.256,-0.192 0,-0.08 -0.192,-0.672 l -0.336,-1.04 q -0.096,-0.352 -0.416,-1.296 h -0.288 l -1.248,-0.016 q -0.672,-0.016 -1.424,0.016 -0.144,0.32 -0.544,1.44 l -0.352,1.04 q -0.08,0.24 -0.08,0.384 0,0.272 0.352,0.352 0.08,0.016 0.784,0.064 0.224,0.016 0.224,0.144 0,0.144 -0.288,0.144 l -2.64,-0.016 q -0.096,0.016 -0.208,0.016 -0.224,0 -0.224,-0.16 0,-0.096 0.496,-0.128 0.64,-0.032 0.816,-0.24 0.176,-0.208 0.576,-1.344 0.304,-0.8 0.88,-2.368 l 1.936,-5.328 q 0.144,-0.352 0.4,-1.104 0.176,-0.544 0.272,-0.544 0.096,0 0.352,0.736 0.32,0.944 2.816,7.456 0.32,0.832 0.64,1.696 0.272,0.736 0.544,0.896 0.208,0.128 0.992,0.112 0.192,0 0.192,0.144 z m -5.088,-3.744 q -0.016,-0.048 -0.112,-0.304 -0.64,-1.856 -0.928,-2.608 -0.08,-0.208 -0.224,-0.608 l -0.096,-0.288 q -0.288,0.688 -0.704,1.904 -0.464,1.36 -0.672,1.904 0.144,0 0.352,-0.016 0.192,0 0.352,0 h 0.896 q 0.368,0 1.136,0.016 z m 17.811992,3.28 q 0,0.896 -1.168,0.896 -1.472,0 -2.352,-0.928 -0.688,-0.72 -0.784,-1.536 l -0.16,-1.312 q -0.16,-1.248 -0.592,-1.744 -0.416,-0.496 -1.36,-0.48 v 3.632 q 0,1.264 0.016,1.36 0,0.272 0.224,0.384 0.224,0.096 0.848,0.096 0.384,0 0.384,0.144 0,0.128 -0.192,0.128 L 38.528035,27 q 0,0 -0.256,0 -0.288,0.016 -0.544,0.016 h -1.152 q -0.16,0 -0.368,-0.016 -0.176,0 -0.224,0 l -0.736,0.016 q -0.224,0 -0.224,-0.128 0,-0.144 0.656,-0.176 0.544,-0.032 0.64,-0.256 0.048,-0.112 0.048,-0.672 v -8.24 q 0,-0.832 -0.032,-0.976 -0.032,-0.16 -0.208,-0.24 -0.224,-0.096 -0.72,-0.096 -0.352,0 -0.352,-0.144 0,-0.112 0.144,-0.128 0.144,-0.032 0.768,-0.032 0,0 0.288,0 0.288,0.016 0.56,0.016 h 0.528 q 0.016,0 0.336,-0.016 0.304,0 0.576,0 h 0.928 q 2.24,0 3.056,0.352 0.64,0.272 1.024,0.832 0.384,0.56 0.384,1.232 0,1.536 -1.6,2.272 -0.704,0.32 -2.08,0.48 l -0.016,0.096 q 1.744,0.112 2.528,0.928 0.784,0.8 0.944,2.608 0.128,1.44 0.4,1.808 0.272,0.352 0.56,0.352 0.24,0 0.24,-0.128 0,-0.064 -0.192,-0.176 -0.176,-0.112 -0.176,-0.32 0,-0.432 0.48,-0.432 0.48,0 0.48,0.544 z m -4.048,-8.08 q 0,-2.064 -1.632,-2.064 -0.528,0 -0.656,0.352 -0.08,0.224 -0.08,1.744 v 2.656 q 1.248,0.016 1.808,-0.624 0.56,-0.64 0.56,-2.064 z m 17.363986,8.544 q 0,0.128 -0.128,0.16 -0.112,0.016 -0.608,0.016 -0.128,0 -0.72,-0.016 -1.184,-0.032 -1.632,-0.032 -0.528,0 -0.928,0.016 -0.8,0.032 -1.088,0.032 -0.432,0 -0.432,-0.16 0,-0.16 0.912,-0.176 0.224,0 0.336,-0.032 0.256,-0.032 0.256,-0.192 0,-0.08 -0.192,-0.672 l -0.336,-1.04 q -0.096,-0.352 -0.416,-1.296 h -0.288 l -1.248,-0.016 q -0.672,-0.016 -1.424,0.016 -0.144,0.32 -0.544,1.44 l -0.352,1.04 q -0.08,0.24 -0.08,0.384 0,0.272 0.352,0.352 0.08,0.016 0.784,0.064 0.224,0.016 0.224,0.144 0,0.144 -0.288,0.144 l -2.64,-0.016 q -0.096,0.016 -0.208,0.016 -0.224,0 -0.224,-0.16 0,-0.096 0.496,-0.128 0.64,-0.032 0.816,-0.24 0.176,-0.208 0.576,-1.344 0.304,-0.8 0.88,-2.368 l 1.936,-5.328 q 0.144,-0.352 0.4,-1.104 0.176,-0.544 0.272,-0.544 0.096,0 0.352,0.736 0.32,0.944 2.816,7.456 0.32,0.832 0.64,1.696 0.272,0.736 0.544,0.896 0.208,0.128 0.992,0.112 0.192,0 0.192,0.144 z m -5.088,-3.744 q -0.016,-0.048 -0.112,-0.304 -0.64,-1.856 -0.928,-2.608 -0.08,-0.208 -0.224,-0.608 l -0.096,-0.288 q -0.288,0.688 -0.704,1.904 -0.464,1.36 -0.672,1.904 0.144,0 0.352,-0.016 0.192,0 0.352,0 h 0.896 q 0.368,0 1.136,0.016 z m 20.083992,3.792 q 0,0.16 -0.32,0.16 h -0.112 q -0.352,0 -1.248,-0.016 -0.88,-0.016 -1.312,-0.016 -0.176,0 -0.736,0.016 -0.544,0 -1.472,0 h -0.4 q -0.224,0 -0.224,-0.144 0,-0.144 0.224,-0.144 l 0.544,0.016 q 0.736,0.016 0.896,-0.256 0.048,-0.08 0.048,-0.96 l -0.016,-8.672 q -0.512,1.328 -1.344,4.224 l -1.392,4.896 q -0.256,0.896 -0.416,0.896 -0.176,0 -0.32,-0.448 -0.048,-0.144 -1.024,-3.072 -0.368,-1.104 -2,-6.192 v 8.272 q 0,0.72 0.016,0.864 0.016,0.128 0.144,0.224 0.24,0.208 0.816,0.192 0.576,-0.016 0.576,0.176 0,0.112 -0.24,0.112 l -1.424,-0.032 q -0.368,-0.016 -0.848,0.016 -0.64,0.032 -0.864,0.032 -0.336,0 -0.336,-0.144 0,-0.128 0.272,-0.128 0.64,0 0.768,-0.016 0.496,-0.064 0.576,-0.368 0.048,-0.192 0.048,-0.8 v -7.632 q 0,-1.28 -0.16,-1.488 -0.144,-0.224 -1.136,-0.224 -0.256,0 -0.256,-0.144 0,-0.16 0.272,-0.144 l 0.432,0.016 3.024,-0.016 q 0.048,0 0.176,0.016 1.36,4.432 2.304,7.36 l 2.16,-7.376 h 0.336 l 2.112,0.016 q 0.048,0 0.272,0 0.24,-0.016 0.432,-0.016 h 0.736 q 0.32,0 0.32,0.144 0,0.16 -0.192,0.144 l -0.368,-0.016 q -0.672,-0.032 -0.912,0.128 -0.224,0.16 -0.224,0.624 0,0.128 0.016,0.56 0.016,0.432 0.016,4.016 v 4.464 q 0,0.576 0.288,0.672 0.304,0.08 0.88,0.064 0.592,-0.016 0.592,0.144 z m 20.327974,-6.496 q 0,0.096 -1.008,0.144 -0.56,0.032 -0.704,0.128 -0.128,0.096 -0.208,0.512 -0.416,2.176 -1.488,3.376 l 0.112,0.176 0.336,0.544 0.352,0.528 q 0.352,0.528 0.72,0.704 0.368,0.16 1.328,0.208 0.368,0.016 0.368,0.176 0,0.112 -0.32,0.112 l -0.96,-0.016 q -0.96,-0.016 -0.784,-0.016 -0.448,0 -2.16,0.048 -0.24,-0.464 -0.464,-0.848 -1.248,1.056 -3.232,1.056 -1.76,0 -2.864,-0.864 -1.088,-0.88 -1.088,-2.288 0,-1.168 0.688,-1.952 0.688,-0.784 2.256,-1.408 -0.592,-0.592 -0.832,-0.896 -0.544,-0.688 -0.544,-1.648 0,-1.072 0.8,-1.744 0.8,-0.672 2.08,-0.672 1.248,0 2.016,0.592 0.784,0.576 0.784,1.504 0,1.6 -2.176,2.208 0.704,0.72 1.792,2.096 1.088,1.36 1.552,2.112 1.168,-1.344 1.168,-3.328 0,-0.4 -0.416,-0.4 -1.264,0.016 -1.264,-0.16 0,-0.128 0.528,-0.128 l 1.424,0.016 1.36,-0.016 q 0.848,-0.016 0.848,0.144 z m -6.544,-2.368 q 0,-2 -0.992,-2 -0.944,0 -0.944,1.344 0,0.624 0.352,1.312 0.352,0.688 0.896,1.136 0.688,-0.48 0.688,-1.792 z m 1.456,7.872 q -2.512,-3.376 -3.84,-4.912 -0.8,0.592 -0.8,2.288 0,1.376 0.832,2.336 0.832,0.944 2.048,0.944 1.056,0 1.76,-0.656 z m 19.848003,-2.048 q 0,1.456 -1.04,2.416 -1.024,0.944 -2.624,0.944 -0.976,0 -2.688,-0.656 -0.128,-0.048 -0.224,-0.048 -0.272,0 -0.416,0.576 -0.048,0.176 -0.128,0.176 -0.128,0 -0.128,-0.224 0,-0.208 0.08,-0.736 0.064,-0.432 0.064,-1.008 0,-0.464 -0.016,-0.736 -0.032,-0.544 -0.032,-0.64 0,-0.256 0.16,-0.256 0.16,0 0.288,0.688 0.224,1.184 1.008,1.84 0.848,0.704 1.824,0.704 0.864,0 1.456,-0.544 0.592,-0.544 0.592,-1.328 0,-0.672 -0.384,-1.072 -0.288,-0.288 -1.856,-1.136 -1.744,-0.928 -2.368,-1.856 -0.576,-0.848 -0.576,-2.016 0,-1.376 0.976,-2.272 0.976,-0.912 2.464,-0.912 0.8,0 1.712,0.384 0.304,0.128 0.432,0.128 0.24,0 0.32,-0.416 0.032,-0.144 0.144,-0.144 0.16,0 0.16,0.208 0,0.08 -0.032,0.448 -0.032,0.368 -0.032,0.608 0,0.832 0.064,1.408 0.016,0.048 0.016,0.128 0,0.144 -0.128,0.144 -0.144,0 -0.288,-0.512 -0.144,-0.512 -0.512,-1.008 -0.352,-0.512 -0.72,-0.736 -0.48,-0.288 -1.12,-0.288 -0.896,0 -1.424,0.432 -0.528,0.432 -0.528,1.184 0,0.656 0.496,1.168 0.496,0.496 1.904,1.28 1.728,0.96 2.288,1.536 0.816,0.848 0.816,2.144 z m 11.7,-5.36 q 0,1.376 -1.024,2.224 -1.024,0.832 -2.72,0.832 -0.432,0 -1.216,-0.112 v 4.096 q 0,0.88 0.112,1.04 0.128,0.144 0.896,0.176 0.432,-0.016 0.432,0.144 0,0.144 -0.256,0.144 h -0.24 q -0.08,0 -0.752,-0.016 -0.656,-0.016 -1.36,-0.016 l -1.872,0.016 q -0.528,0 -0.608,-0.032 -0.08,-0.032 -0.08,-0.096 0,-0.128 0.256,-0.128 0.784,-0.016 0.928,-0.144 0.16,-0.128 0.16,-0.736 v -8.224 q 0,-1.024 -0.08,-1.232 -0.08,-0.208 -0.816,-0.208 -0.432,0 -0.432,-0.128 0,-0.144 0.4,-0.144 l 4.576,-0.016 q 1.68,0 2.512,0.512 1.184,0.736 1.184,2.048 z m -2.576,0.096 q 0,-2.368 -1.488,-2.368 -0.896,0 -0.896,0.784 v 4.192 q 0.656,0 0.896,-0.048 0.464,-0.08 0.8,-0.368 0.688,-0.608 0.688,-2.192 z m 15.63599,7.792 q 0,0.896 -1.168,0.896 -1.472,0 -2.352,-0.928 -0.688,-0.72 -0.784,-1.536 l -0.16,-1.312 q -0.16,-1.248 -0.592,-1.744 -0.416,-0.496 -1.36,-0.48 v 3.632 q 0,1.264 0.016,1.36 0,0.272 0.224,0.384 0.224,0.096 0.848,0.096 0.384,0 0.384,0.144 0,0.128 -0.192,0.128 L 126.68798,27 q 0,0 -0.256,0 -0.288,0.016 -0.544,0.016 h -1.152 q -0.16,0 -0.368,-0.016 -0.176,0 -0.224,0 l -0.736,0.016 q -0.224,0 -0.224,-0.128 0,-0.144 0.656,-0.176 0.544,-0.032 0.64,-0.256 0.048,-0.112 0.048,-0.672 v -8.24 q 0,-0.832 -0.032,-0.976 -0.032,-0.16 -0.208,-0.24 -0.224,-0.096 -0.72,-0.096 -0.352,0 -0.352,-0.144 0,-0.112 0.144,-0.128 0.144,-0.032 0.768,-0.032 0,0 0.288,0 0.288,0.016 0.56,0.016 h 0.528 q 0.016,0 0.336,-0.016 0.304,0 0.576,0 h 0.928 q 2.24,0 3.056,0.352 0.64,0.272 1.024,0.832 0.384,0.56 0.384,1.232 0,1.536 -1.6,2.272 -0.704,0.32 -2.08,0.48 l -0.016,0.096 q 1.744,0.112 2.528,0.928 0.784,0.8 0.944,2.608 0.128,1.44 0.4,1.808 0.272,0.352 0.56,0.352 0.24,0 0.24,-0.128 0,-0.064 -0.192,-0.176 -0.176,-0.112 -0.176,-0.32 0,-0.432 0.48,-0.432 0.48,0 0.48,0.544 z m -4.048,-8.08 q 0,-2.064 -1.632,-2.064 -0.528,0 -0.656,0.352 -0.08,0.224 -0.08,1.744 v 2.656 q 1.248,0.016 1.808,-0.624 0.56,-0.64 0.56,-2.064 z m 17.36398,8.544 q 0,0.128 -0.128,0.16 -0.112,0.016 -0.608,0.016 -0.128,0 -0.72,-0.016 -1.184,-0.032 -1.632,-0.032 -0.528,0 -0.928,0.016 -0.8,0.032 -1.088,0.032 -0.432,0 -0.432,-0.16 0,-0.16 0.912,-0.176 0.224,0 0.336,-0.032 0.256,-0.032 0.256,-0.192 0,-0.08 -0.192,-0.672 l -0.336,-1.04 q -0.096,-0.352 -0.416,-1.296 h -0.288 l -1.248,-0.016 q -0.672,-0.016 -1.424,0.016 -0.144,0.32 -0.544,1.44 l -0.352,1.04 q -0.08,0.24 -0.08,0.384 0,0.272 0.352,0.352 0.08,0.016 0.784,0.064 0.224,0.016 0.224,0.144 0,0.144 -0.288,0.144 l -2.64,-0.016 q -0.096,0.016 -0.208,0.016 -0.224,0 -0.224,-0.16 0,-0.096 0.496,-0.128 0.64,-0.032 0.816,-0.24 0.176,-0.208 0.576,-1.344 0.304,-0.8 0.88,-2.368 l 1.936,-5.328 q 0.144,-0.352 0.4,-1.104 0.176,-0.544 0.272,-0.544 0.096,0 0.352,0.736 0.32,0.944 2.816,7.456 0.32,0.832 0.64,1.696 0.272,0.736 0.544,0.896 0.208,0.128 0.992,0.112 0.192,0 0.192,0.144 z m -5.088,-3.744 q -0.016,-0.048 -0.112,-0.304 -0.64,-1.856 -0.928,-2.608 -0.08,-0.208 -0.224,-0.608 l -0.096,-0.288 q -0.288,0.688 -0.704,1.904 -0.464,1.36 -0.672,1.904 0.144,0 0.352,-0.016 0.192,0 0.352,0 h 0.896 q 0.368,0 1.136,0.016 z m 18.34,0.448 q 0,0.16 -0.608,0.144 -0.72,-0.016 -0.768,0.32 -0.032,0.192 -0.032,1.264 0,0.368 0.016,0.656 -1.904,1.296 -3.632,1.296 -2.272,0 -3.808,-1.6 -1.52,-1.6 -1.52,-3.984 0,-2.528 1.568,-4.208 1.568,-1.68 3.936,-1.68 0.976,0 2.016,0.48 0.384,0.176 0.528,0.176 0.256,0 0.432,-0.384 0.08,-0.192 0.176,-0.192 0.112,0 0.112,0.16 0,0.032 -0.048,0.64 -0.016,0.192 -0.016,0.912 0,0.544 0.032,1.104 0.032,0.56 0.032,0.56 0,0.304 -0.16,0.304 -0.224,0 -0.304,-0.64 -0.192,-1.408 -0.928,-2.224 -0.544,-0.592 -1.52,-0.592 -3.024,0 -3.024,5.376 0,3.344 0.992,4.656 0.624,0.832 1.664,0.832 1.312,0 1.312,-1.664 0,-1.248 -0.112,-1.392 -0.096,-0.16 -0.528,-0.16 h -0.4 q -0.336,0 -0.336,-0.144 0,-0.144 0.272,-0.144 0.56,0 1.408,0.016 l 1.024,0.016 q 0.304,0 0.96,-0.016 0.672,-0.032 0.864,-0.032 h 0.208 q 0.192,0 0.192,0.144 z m 12.35599,-7.456 q 0,0.128 -0.544,0.144 -0.672,0.016 -0.816,0.224 -0.048,0.064 -0.064,0.272 v 6.768 q 0,3.776 -3.616,3.776 -1.856,0 -2.88,-1.136 -0.768,-0.848 -0.768,-3.008 v -6.144 q 0,-0.512 -0.16,-0.624 -0.16,-0.112 -1.008,-0.176 -0.176,-0.016 -0.176,-0.128 0,-0.144 0.288,-0.144 0,0 0.128,0 0.144,0.016 0.24,0.016 l 0.992,0.016 q 1.408,0.016 2.08,0 0.896,-0.016 0.704,-0.016 h 0.336 q 0.272,0 0.272,0.16 0,0.144 -0.496,0.144 -0.704,0 -0.752,0.256 -0.032,0.176 -0.032,0.336 v 5.984 q 0,1.296 0.048,1.648 0.112,1.04 0.592,1.504 0.592,0.576 1.552,0.576 1.088,0 1.6,-0.704 0.624,-0.848 0.624,-3.04 v -5.28 q 0,-0.144 0.016,-0.368 0,-0.224 0,-0.272 0,-0.416 -0.24,-0.544 -0.16,-0.096 -0.624,-0.096 -0.576,-0.016 -0.576,-0.192 0,-0.128 0.224,-0.128 0.24,0 0.704,0.032 0.464,0.016 0.704,0.016 0.016,0 0.272,-0.016 0.272,0 0.496,0 h 0.384 q 0.496,0 0.496,0.144 z m 11.52401,8.112 q 0,0.032 -0.016,1.488 -0.016,0.768 -0.032,1.104 0,0.336 0,0.32 -4.224,-0.192 -7.392,-0.112 l -1.344,0.032 q -0.288,0 -0.288,-0.128 0,-0.096 0.064,-0.112 0.08,-0.016 0.496,-0.048 0.752,-0.048 0.816,-0.432 0.032,-0.208 0.032,-0.464 v -8.112 q 0,-0.96 -0.016,-1.056 -0.016,-0.256 -0.16,-0.352 -0.144,-0.096 -0.592,-0.096 -0.496,0 -0.496,-0.144 0,-0.16 0.432,-0.16 0.448,0 1.232,-0.016 2.944,-0.064 4.816,-0.032 l 1.088,0.016 q 0.352,0 0.864,-0.064 l 0.144,1.744 q 0.08,0.832 0.08,1.024 0,0.16 -0.16,0.16 -0.16,0 -0.208,-0.416 -0.144,-1.104 -0.896,-1.6 -0.736,-0.512 -2.192,-0.512 -0.448,0 -1.536,0.048 V 21 q 1.76,0.016 2.208,-0.24 0.464,-0.272 0.624,-1.376 0.08,-0.592 0.24,-0.592 0.144,0 0.144,0.288 0,0.288 -0.048,1.184 -0.016,0.304 -0.016,0.816 0,1.376 0.032,2.08 0.016,0.096 0.016,0.24 0,0.192 -0.144,0.192 -0.112,0 -0.144,-0.064 -0.032,-0.08 -0.096,-0.528 -0.16,-1.136 -0.448,-1.408 -0.272,-0.288 -1.28,-0.288 h -1.088 v 5.392 l 1.024,-0.016 q 1.76,-0.032 2.144,-0.08 0.48,-0.064 0.928,-0.352 0.4,-0.32 0.544,-0.688 0.16,-0.368 0.336,-1.36 0.048,-0.24 0.16,-0.24 0.128,0 0.128,0.24 z m 6.97999,-7.088 q 0,0.448 -0.56,1.152 -1.312,1.648 -2.08,2.88 -0.176,0.272 -0.256,0.272 -0.128,0 -0.128,-0.144 0,-0.08 0.08,-0.272 0.56,-1.376 1.072,-3.408 0.336,-1.312 1.072,-1.312 0.32,0 0.56,0.256 0.24,0.24 0.24,0.576 z m 10.80401,6.736 q 0,1.456 -1.04,2.416 -1.024,0.944 -2.624,0.944 -0.976,0 -2.688,-0.656 -0.128,-0.048 -0.224,-0.048 -0.272,0 -0.416,0.576 -0.048,0.176 -0.128,0.176 -0.128,0 -0.128,-0.224 0,-0.208 0.08,-0.736 0.064,-0.432 0.064,-1.008 0,-0.464 -0.016,-0.736 -0.032,-0.544 -0.032,-0.64 0,-0.256 0.16,-0.256 0.16,0 0.288,0.688 0.224,1.184 1.008,1.84 0.848,0.704 1.824,0.704 0.864,0 1.456,-0.544 0.592,-0.544 0.592,-1.328 0,-0.672 -0.384,-1.072 -0.288,-0.288 -1.856,-1.136 -1.744,-0.928 -2.368,-1.856 -0.576,-0.848 -0.576,-2.016 0,-1.376 0.976,-2.272 0.976,-0.912 2.464,-0.912 0.8,0 1.712,0.384 0.304,0.128 0.432,0.128 0.24,0 0.32,-0.416 0.032,-0.144 0.144,-0.144 0.16,0 0.16,0.208 0,0.08 -0.032,0.448 -0.032,0.368 -0.032,0.608 0,0.832 0.064,1.408 0.016,0.048 0.016,0.128 0,0.144 -0.128,0.144 -0.144,0 -0.288,-0.512 -0.144,-0.512 -0.512,-1.008 -0.352,-0.512 -0.72,-0.736 -0.48,-0.288 -1.12,-0.288 -0.896,0 -1.424,0.432 -0.528,0.432 -0.528,1.184 0,0.656 0.496,1.168 0.496,0.496 1.904,1.28 1.728,0.96 2.288,1.536 0.816,0.848 0.816,2.144 z"
       id="text90"
       style="font-weight:bold;font-size:16px;font-family:'Bodoni 72';-inkscape-font-specification:'Bodoni 72, Bold';letter-spacing:2.5;text-anchor:middle;fill:#3d3424"
       aria-label="KARAM &amp; SPRAGUE'S" />
    <!-- Small decorative line under first text line -->
    <line
       x1="30"
       y1="32"
       x2="180"
       y2="32"
       stroke="#3D3424"
       stroke-width="0.5"
       id="line90" />
  </g>
  <!-- ==================== SCROLLWORK FLANKING CARTOUCHE ==================== -->
  <!-- Scrolls emanating from left of cartouche -->
  <g
     transform="translate(70,165)"
     id="g91">
    <use
       href="#acanthus-scroll-l"
       transform="scale(0.9)"
       id="use90" />
  </g>
  <g
     transform="translate(70,185)"
     id="g92">
    <use
       href="#acanthus-scroll-l"
       transform="scale(0.7)"
       id="use91" />
  </g>
  <!-- Scrolls emanating from right of cartouche -->
  <g
     transform="translate(300,165)"
     id="g93">
    <use
       href="#acanthus-scroll-r"
       transform="scale(1.2)"
       id="use92" />
  </g>
  <g
     transform="translate(310,185)"
     id="g94">
    <use
       href="#acanthus-scroll-r"
       transform="scale(1)"
       id="use93" />
  </g>
  <g
     transform="translate(305,150)"
     id="g95">
    <use
       href="#acanthus-scroll-r"
       transform="scale(0.9)"
       id="use94" />
  </g>
  <!-- ==================== MAIN TITLE: "FORTNIGHTLY CIRCULAR" ==================== -->
  <!-- "FORTNIGHTLY" - large Victorian display type -->
  <path
     d="m 453.22407,127.632 q 0,0.576 -0.504,0.576 -0.432,0 -0.648,-0.36 -0.144,-0.36 -0.648,-2.448 -1.44,-5.76 -5.544,-7.704 -2.448,-1.152 -8.712,-1.152 -2.88,0 -6.624,0.216 v 22.032 h 2.088 q 6.768,0 8.424,-1.44 1.728,-1.44 2.592,-7.992 0.144,-0.936 0.72,-0.936 0.576,0 0.576,1.08 0,-0.36 -0.072,1.008 -0.072,1.296 -0.072,4.32 v 4.68 q 0,5.04 0.072,6.696 0.072,1.584 0.072,2.736 0,1.152 -0.648,1.152 -0.936,0 -1.08,-2.304 -0.36,-5.256 -2.592,-6.84 -1.08,-0.792 -3.816,-0.792 -3.672,0 -6.264,0.072 v 17.424 q 0,4.608 0.72,5.4 0.72,0.792 4.968,0.792 1.296,0 1.296,0.576 0,0.648 -1.368,0.648 -1.584,0 -3.816,-0.072 -4.464,-0.144 -10.08,-0.144 -3.96,0 -6.984,0.216 -0.432,0.072 -1.008,0.072 -0.864,0 -0.864,-0.648 0,-0.648 2.304,-0.72 3.384,-0.144 3.744,-1.584 0.288,-0.576 0.288,-2.016 l -0.072,-41.76 q -0.144,-1.008 -0.864,-1.368 -0.648,-0.36 -2.736,-0.504 -2.016,-0.144 -2.016,-0.648 0,-0.72 1.44,-0.72 h 1.368 q 0.288,0 5.472,-0.072 5.76,-0.144 10.152,-0.144 6.552,-0.072 11.088,0 l 4.968,0.072 q 1.152,0 3.456,-0.216 0.576,8.64 1.152,11.952 0.072,0.432 0.072,0.864 z m 55.17602,12.528 q 0,10.8 -6.768,18.288 -6.696,7.416 -16.488,7.416 -9.576,0 -16.416,-7.56 -6.84,-7.56 -6.84,-18.216 0,-10.944 6.768,-18.288 6.84,-7.344 16.92,-7.344 9.72,0 16.272,7.416 6.552,7.344 6.552,18.288 z m -12.672,1.152 q 0,-14.328 -3.384,-21.168 -2.232,-4.464 -7.056,-4.464 -4.896,0 -7.848,6.264 -2.88,6.264 -2.88,16.776 0,15.264 5.184,22.824 2.16,3.168 6.264,3.168 4.752,0 6.696,-4.536 3.024,-7.056 3.024,-18.864 z m 67.48794,20.88 q 0,4.032 -5.256,4.032 -6.624,0 -10.584,-4.176 -3.096,-3.24 -3.528,-6.912 l -0.72,-5.904 q -0.72,-5.616 -2.664,-7.848 -1.872,-2.232 -6.12,-2.16 v 16.344 q 0,5.688 0.072,6.12 0,1.224 1.008,1.728 1.008,0.432 3.816,0.432 1.728,0 1.728,0.648 0,0.576 -0.864,0.576 l -6.984,-0.072 q 0,0 -1.152,0 -1.296,0.072 -2.448,0.072 h -5.184 q -0.72,0 -1.656,-0.072 -0.792,0 -1.008,0 l -3.312,0.072 q -1.008,0 -1.008,-0.576 0,-0.648 2.952,-0.792 2.448,-0.144 2.88,-1.152 0.216,-0.504 0.216,-3.024 v -37.08 q 0,-3.744 -0.144,-4.392 -0.144,-0.72 -0.936,-1.08 -1.008,-0.432 -3.24,-0.432 -1.584,0 -1.584,-0.648 0,-0.504 0.648,-0.576 0.648,-0.144 3.456,-0.144 0,0 1.296,0 1.296,0.072 2.52,0.072 h 2.376 q 0.072,0 1.512,-0.072 1.368,0 2.592,0 h 4.176 q 10.08,0 13.752,1.584 2.88,1.224 4.608,3.744 1.728,2.52 1.728,5.544 0,6.912 -7.2,10.224 -3.168,1.44 -9.36,2.16 l -0.072,0.432 q 7.848,0.504 11.376,4.176 3.528,3.6 4.248,11.736 0.576,6.48 1.8,8.136 1.224,1.584 2.52,1.584 1.08,0 1.08,-0.576 0,-0.288 -0.864,-0.792 -0.792,-0.504 -0.792,-1.44 0,-1.944 2.16,-1.944 2.16,0 2.16,2.448 z m -18.216,-36.36 q 0,-9.288 -7.344,-9.288 -2.376,0 -2.952,1.584 -0.36,1.008 -0.36,7.848 v 11.952 q 5.616,0.072 8.136,-2.808 2.52,-2.88 2.52,-9.288 z m 66.19193,2.736 q 0,0.576 -0.504,0.576 -0.792,0 -1.44,-2.808 -1.296,-5.544 -3.6,-7.56 -2.304,-2.016 -7.344,-2.016 -1.944,0 -3.384,0.144 l 0.072,43.776 q 0.072,1.8 1.008,2.304 0.936,0.504 5.04,0.864 0.792,0.072 0.792,0.648 0,0.72 -1.152,0.72 -0.216,0 -1.08,-0.072 -1.08,-0.072 -1.8,-0.072 l -7.416,-0.216 -12.24,0.216 q -1.008,0 -1.008,-0.576 0,-0.432 0.288,-0.504 0.288,-0.072 2.376,-0.144 3.96,-0.144 4.248,-1.872 0.144,-0.936 0.144,-14.616 v -30.456 q -0.792,-0.072 -1.872,-0.072 -5.76,0 -8.424,2.16 -2.592,2.088 -3.384,7.488 -0.504,3.168 -1.296,3.168 -0.648,0 -0.648,-0.864 0,-0.576 0.288,-3.96 0.576,-7.056 0.72,-9.648 h 1.08 l 5.256,-0.072 q 0.216,0 4.968,0.144 4.824,0.144 12.24,0.144 4.104,0 7.344,-0.072 3.24,-0.072 5.904,-0.072 2.376,0 3.6,-0.144 0.216,4.68 1.08,11.952 0.144,1.224 0.144,1.512 z m 53.59203,-12.6 q 0,0.36 -0.576,0.432 -0.504,0.072 -3.816,0.216 -1.944,0.072 -2.232,0.792 -0.288,0.432 -0.216,4.608 l 0.072,8.352 q 0.072,8.352 0.072,21.816 v 12.24 q 0,1.224 -0.504,1.224 -0.792,0 -10.512,-11.88 -9.648,-11.952 -21.24,-27.288 v 5.328 q 0,2.736 0.072,4.752 0,2.016 0,2.448 V 161.4 q 0,1.512 0.936,1.872 1.512,0.576 3.528,0.576 2.376,0 2.664,0.36 0.072,0.072 0.072,0.288 0,0.576 -1.08,0.576 -0.648,0 -1.08,-0.072 -4.32,-0.144 -5.4,-0.144 -2.52,0 -6.624,0.144 -2.016,0.072 -1.728,0.072 -1.08,0 -1.08,-0.576 0,-0.504 3.168,-0.72 3.672,-0.288 4.248,-1.152 0.36,-0.576 0.36,-5.184 v -29.592 q 0,-4.536 -0.144,-5.472 -0.432,-3.168 -2.52,-4.608 -1.584,-1.08 -5.904,-1.224 -1.152,-0.072 -1.152,-0.648 0,-0.648 1.008,-0.648 0.432,0 3.096,0.144 1.296,0.072 3.888,0.072 5.328,0 8.64,-0.144 l 25.272,32.472 V 119.28 q 0,-1.728 -0.576,-2.16 -0.576,-0.504 -2.448,-0.576 l -3.096,-0.144 q -0.864,-0.072 -0.864,-0.504 0,-0.576 1.296,-0.576 h 1.584 q 0.432,0 1.44,-0.072 0.936,0 1.656,0 7.272,0 8.496,0.072 1.224,0.072 1.224,0.648 z m 28.96799,48.528 q 0,0.576 -0.936,0.576 -0.504,0 -0.936,-0.072 -4.32,-0.216 -7.416,-0.216 -3.24,0 -9.504,0.216 -2.088,0.072 -3.096,0.072 -1.08,0 -1.08,-0.648 0,-0.36 0.36,-0.432 0.432,-0.072 2.808,-0.144 2.232,-0.432 2.592,-1.296 0.36,-0.936 0.36,-5.832 v -34.632 q 0,-1.368 0,-2.664 -0.072,-1.296 -0.072,-1.224 0,-1.8 -3.6,-1.8 -2.016,0 -2.016,-0.504 0,-0.504 0.288,-0.576 0.288,-0.072 1.872,-0.072 -0.72,0 2.592,0.072 3.312,0.072 5.688,0.072 h 3.672 q 1.152,0 3.24,-0.072 2.16,-0.144 3.024,-0.144 h 0.72 q 0.936,0 0.936,0.576 0,0.432 -0.36,0.576 -0.288,0.072 -2.16,0.144 -2.232,0.144 -2.736,0.936 l -0.216,1.368 v 40.68 q 0,3.096 0.648,3.672 0.72,0.576 4.68,0.792 0.648,0.072 0.648,0.576 z M 749.36,149.448 q 0,0.72 -2.736,0.648 -3.24,-0.072 -3.456,1.44 -0.144,0.864 -0.144,5.688 0,1.656 0.072,2.952 -8.568,5.832 -16.344,5.832 -10.224,0 -17.136,-7.2 -6.84,-7.2 -6.84,-17.928 0,-11.376 7.056,-18.936 7.056,-7.56 17.712,-7.56 4.392,0 9.072,2.16 1.728,0.792 2.376,0.792 1.152,0 1.944,-1.728 0.36,-0.864 0.792,-0.864 0.504,0 0.504,0.72 0,0.144 -0.216,2.88 -0.072,0.864 -0.072,4.104 0,2.448 0.144,4.968 0.144,2.52 0.144,2.52 0,1.368 -0.72,1.368 -1.008,0 -1.368,-2.88 -0.864,-6.336 -4.176,-10.008 -2.448,-2.664 -6.84,-2.664 -13.608,0 -13.608,24.192 0,15.048 4.464,20.952 2.808,3.744 7.488,3.744 5.904,0 5.904,-7.488 0,-5.616 -0.504,-6.264 -0.432,-0.72 -2.376,-0.72 h -1.8 q -1.512,0 -1.512,-0.648 0,-0.648 1.224,-0.648 2.52,0 6.336,0.072 l 4.608,0.072 q 1.368,0 4.32,-0.072 3.024,-0.144 3.888,-0.144 h 0.936 q 0.864,0 0.864,0.648 z M 806.62398,165 q 0,0.432 -0.648,0.432 -0.504,0 -0.936,-0.072 -2.52,-0.432 -14.112,-0.432 -1.08,0 -3.312,0.072 l -2.232,0.072 q -2.232,0.072 -2.232,-0.576 0,-0.576 1.8,-0.648 1.584,-0.072 2.736,-0.576 1.224,-0.576 1.224,-1.296 0.072,-0.432 0.144,-2.376 l 0.072,-3.6 v -16.704 l -14.832,0.072 q -1.296,0 -2.52,-0.072 l 0.144,22.248 q 0.072,1.872 2.88,2.232 2.232,0.288 2.592,0.432 0.36,0.072 0.36,0.432 0,0.432 -0.72,0.432 -0.936,0 -4.968,-0.144 -4.032,-0.144 -3.384,-0.144 -0.432,0 -4.464,0.216 -3.96,0.144 -7.56,0.144 h -0.72 q -1.296,0 -1.296,-0.648 0,-0.576 1.008,-0.576 3.384,0 4.68,-0.864 0.576,-0.36 0.576,-3.816 v -39.744 q 0,-2.304 -1.224,-2.736 -1.224,-0.504 -3.96,-0.504 -0.936,0 -0.936,-0.576 0,-0.36 0.792,-0.432 -0.288,0 5.4,0.072 l 8.928,0.072 q 2.736,0 5.472,-0.144 1.224,-0.072 1.44,-0.072 1.008,0 1.008,0.72 0,0.504 -0.432,0.648 -0.36,0.072 -2.52,0.144 -2.088,0.072 -2.592,0.936 -0.504,0.792 -0.504,2.952 v 16.992 l 1.728,0.072 q 7.2,0.288 15.624,-0.144 V 121.44 q 0,-4.896 -3.672,-4.896 -2.448,0 -2.448,-0.72 0,-0.648 0.936,-0.648 h 0.72 q 1.152,0 4.032,0.144 2.952,0.072 6.408,0.072 h 5.472 l 5.328,-0.216 q 0.72,0 0.72,0.432 0,0.504 -2.664,0.72 -2.664,0.216 -3.312,1.152 -0.648,0.864 -0.648,4.464 v 35.424 q 0,4.68 1.152,5.688 1.224,0.936 4.104,1.08 1.368,0.072 1.368,0.864 z m 48.62394,-36.432 q 0,0.576 -0.504,0.576 -0.792,0 -1.44,-2.808 -1.296,-5.544 -3.6,-7.56 -2.304,-2.016 -7.344,-2.016 -1.944,0 -3.384,0.144 l 0.072,43.776 q 0.072,1.8 1.008,2.304 0.936,0.504 5.04,0.864 0.792,0.072 0.792,0.648 0,0.72 -1.152,0.72 -0.216,0 -1.08,-0.072 -1.08,-0.072 -1.8,-0.072 l -7.416,-0.216 -12.24,0.216 q -1.008,0 -1.008,-0.576 0,-0.432 0.288,-0.504 0.288,-0.072 2.376,-0.144 3.96,-0.144 4.248,-1.872 0.144,-0.936 0.144,-14.616 v -30.456 q -0.792,-0.072 -1.872,-0.072 -5.76,0 -8.424,2.16 -2.592,2.088 -3.384,7.488 -0.504,3.168 -1.296,3.168 -0.648,0 -0.648,-0.864 0,-0.576 0.288,-3.96 0.576,-7.056 0.72,-9.648 h 1.08 l 5.256,-0.072 q 0.216,0 4.968,0.144 4.824,0.144 12.24,0.144 4.104,0 7.344,-0.072 3.24,-0.072 5.904,-0.072 2.376,0 3.6,-0.144 0.216,4.68 1.08,11.952 0.144,1.224 0.144,1.512 z m 45.67204,24.264 q 0,1.368 -0.072,2.304 -0.288,3.168 -0.216,5.112 l 0.072,5.112 q -9.216,-0.36 -33.336,-0.36 h -3.024 q -3.168,0 -3.168,-0.576 0,-0.576 1.008,-0.576 3.6,-0.072 4.608,-1.008 0.648,-0.576 0.648,-3.456 l -0.072,-39.024 q 0,-2.448 -0.432,-3.024 -0.864,-1.08 -2.664,-1.008 l -1.8,0.072 q -0.792,0 -0.792,-0.576 0,-0.576 1.008,-0.576 0.576,0 1.152,0.072 h 18.288 q 0.36,-0.072 0.792,-0.072 0.72,0 0.72,0.576 0,0.648 -1.872,0.648 -2.664,0 -3.168,0.648 -0.432,0.648 -0.432,5.688 v 17.136 q 0,5.256 0.288,23.544 1.368,0.072 3.096,0.072 7.56,0 10.44,-0.576 4.536,-0.936 6.192,-4.608 0.864,-1.872 1.584,-5.976 0.216,-1.152 0.648,-1.152 0.504,0 0.504,1.584 z m 50.27994,-36.864 q 0,0.504 -0.936,0.576 -4.248,0.216 -5.112,1.008 -0.792,0.144 -5.472,10.728 -1.008,2.304 -3.024,6.624 -2.52,5.04 -2.952,6.624 -0.432,1.512 -0.432,5.616 l 0.072,14.472 q 0,1.224 1.008,1.656 1.08,0.36 4.176,0.432 1.584,0 1.584,0.72 0,0.576 -1.368,0.576 -0.288,0 -1.656,-0.072 -1.656,0 -4.608,-0.072 l -5.76,-0.072 q -0.216,0 -1.872,0.072 -2.016,0.072 -3.6,0.072 l -4.536,0.072 q -1.152,0 -1.152,-0.576 0,-0.576 1.008,-0.576 5.112,-0.072 5.616,-0.936 0.504,-0.504 0.504,-2.304 v -17.064 q -2.016,-5.472 -7.056,-14.832 -2.088,-4.392 -5.904,-11.016 -1.008,-1.296 -3.528,-1.296 h -0.792 q -0.288,0.072 -0.72,0.072 -1.44,0 -1.44,-0.792 0,-0.648 1.512,-0.648 -0.216,0 0.648,0.072 0.792,0.072 2.736,0.072 l 8.496,0.072 q 0.504,0 1.584,0 1.296,-0.072 3.168,-0.072 h 4.248 q 0.72,0 1.512,-0.072 0.792,0 0.72,0 1.44,0 1.44,0.576 0,0.432 -0.36,0.504 -0.288,0.072 -2.52,0.144 -3.96,0.144 -3.96,1.728 0,1.152 0.504,2.376 0.504,1.152 3.384,6.984 2.52,5.04 6.048,11.808 2.232,-3.96 6.336,-13.104 3.096,-6.84 3.096,-8.064 0,-1.584 -2.088,-1.584 -3.168,0.072 -3.168,-0.648 0,-0.792 1.368,-0.72 l 2.016,0.072 q 2.016,0.072 6.84,0.072 h 2.736 q 1.656,0 1.656,0.72 z"
     id="text95"
     style="font-weight:bold;font-size:72px;font-family:'Bodoni 72';-inkscape-font-specification:'Bodoni 72, Bold';letter-spacing:6;text-anchor:middle;fill:#3d3424"
     aria-label="FORTNIGHTLY" />
  <!-- Decorative thin rule between title words -->
  <line
     x1="380"
     y1="178"
     x2="980"
     y2="178"
     stroke="#3D3424"
     stroke-width="0.6"
     id="line95" />
  <!-- "CIRCULAR" - even larger, bolder -->
  <path
     d="m 499.61411,230.042 -0.082,1.394 q 0,0.41 -0.41,5.166 -0.328,3.608 -0.328,5.576 0,2.46 0.082,4.1 0.082,0.574 0.082,1.394 0,0.902 -0.41,0.902 -0.41,0 -0.902,-0.82 -1.804,-2.952 -3.854,-3.854 -6.15,5.248 -13.202,5.248 -10.742,0 -18.942,-8.036 -8.692,-8.528 -8.692,-21.484 0,-12.546 7.79,-20.91 7.872,-8.446 19.598,-8.446 5.412,0 9.676,2.46 2.46,1.394 3.608,1.394 1.722,0 3.198,-1.558 1.066,-1.148 1.312,-1.148 0.328,0 0.328,0.574 0,0.246 -0.082,0.738 -0.492,2.788 -0.492,6.888 0,0.41 0.082,3.362 0,2.87 0,3.854 v 1.804 q 0,1.476 -0.82,1.476 -0.656,0 -1.312,-3.198 -2.952,-14.76 -13.53,-14.76 -8.364,0 -12.136,10.824 -2.624,7.38 -2.624,17.712 0,15.334 6.232,22.468 3.28,3.772 8.61,3.772 11.562,0 15.17,-15.416 0.574,-2.542 1.312,-2.542 0.82,0 0.738,1.066 z m 39.60198,17.384 q 0,0.656 -1.066,0.656 -0.574,0 -1.066,-0.082 -4.92,-0.246 -8.446,-0.246 -3.69,0 -10.824,0.246 -2.378,0.082 -3.526,0.082 -1.23,0 -1.23,-0.738 0,-0.41 0.41,-0.492 0.492,-0.082 3.198,-0.164 2.542,-0.492 2.952,-1.476 0.41,-1.066 0.41,-6.642 v -39.442 q 0,-1.558 0,-3.034 -0.082,-1.476 -0.082,-1.394 0,-2.05 -4.1,-2.05 -2.296,0 -2.296,-0.574 0,-0.574 0.328,-0.656 0.328,-0.082 2.132,-0.082 -0.82,0 2.952,0.082 3.772,0.082 6.478,0.082 h 4.182 q 1.312,0 3.69,-0.082 2.46,-0.164 3.444,-0.164 h 0.82 q 1.066,0 1.066,0.656 0,0.492 -0.41,0.656 -0.328,0.082 -2.46,0.164 -2.542,0.164 -3.116,1.066 l -0.246,1.558 v 46.33 q 0,3.526 0.738,4.182 0.82,0.656 5.33,0.902 0.738,0.082 0.738,0.656 z m 63.79203,-2.624 q 0,4.592 -5.986,4.592 -7.544,0 -12.054,-4.756 -3.526,-3.69 -4.018,-7.872 l -0.82,-6.724 q -0.82,-6.396 -3.034,-8.938 -2.132,-2.542 -6.97,-2.46 v 18.614 q 0,6.478 0.082,6.97 0,1.394 1.148,1.968 1.148,0.492 4.346,0.492 1.968,0 1.968,0.738 0,0.656 -0.984,0.656 l -7.954,-0.082 q 0,0 -1.312,0 -1.476,0.082 -2.788,0.082 h -5.904 q -0.82,0 -1.886,-0.082 -0.902,0 -1.148,0 l -3.772,0.082 q -1.148,0 -1.148,-0.656 0,-0.738 3.362,-0.902 2.788,-0.164 3.28,-1.312 0.246,-0.574 0.246,-3.444 v -42.23 q 0,-4.264 -0.164,-5.002 -0.164,-0.82 -1.066,-1.23 -1.148,-0.492 -3.69,-0.492 -1.804,0 -1.804,-0.738 0,-0.574 0.738,-0.656 0.738,-0.164 3.936,-0.164 0,0 1.476,0 1.476,0.082 2.87,0.082 h 2.706 q 0.082,0 1.722,-0.082 1.558,0 2.952,0 h 4.756 q 11.48,0 15.662,1.804 3.28,1.394 5.248,4.264 1.968,2.87 1.968,6.314 0,7.872 -8.2,11.644 -3.608,1.64 -10.66,2.46 l -0.082,0.492 q 8.938,0.574 12.956,4.756 4.018,4.1 4.838,13.366 0.656,7.38 2.05,9.266 1.394,1.804 2.87,1.804 1.23,0 1.23,-0.656 0,-0.328 -0.984,-0.902 -0.902,-0.574 -0.902,-1.64 0,-2.214 2.46,-2.214 2.46,0 2.46,2.788 z m -20.746,-41.41 q 0,-10.578 -8.364,-10.578 -2.706,0 -3.362,1.804 -0.41,1.148 -0.41,8.938 v 13.612 q 6.396,0.082 9.266,-3.198 2.87,-3.28 2.87,-10.578 z m 79.28993,26.65 -0.082,1.394 q 0,0.41 -0.41,5.166 -0.328,3.608 -0.328,5.576 0,2.46 0.082,4.1 0.082,0.574 0.082,1.394 0,0.902 -0.41,0.902 -0.41,0 -0.902,-0.82 -1.804,-2.952 -3.854,-3.854 -6.15,5.248 -13.202,5.248 -10.742,0 -18.942,-8.036 -8.692,-8.528 -8.692,-21.484 0,-12.546 7.79,-20.91 7.872,-8.446 19.598,-8.446 5.412,0 9.676,2.46 2.46,1.394 3.608,1.394 1.722,0 3.198,-1.558 1.066,-1.148 1.312,-1.148 0.328,0 0.328,0.574 0,0.246 -0.082,0.738 -0.492,2.788 -0.492,6.888 0,0.41 0.082,3.362 0,2.87 0,3.854 v 1.804 q 0,1.476 -0.82,1.476 -0.656,0 -1.312,-3.198 -2.952,-14.76 -13.53,-14.76 -8.364,0 -12.136,10.824 -2.624,7.38 -2.624,17.712 0,15.334 6.232,22.468 3.28,3.772 8.61,3.772 11.562,0 15.17,-15.416 0.574,-2.542 1.312,-2.542 0.82,0 0.738,1.066 z m 64.61197,-37.966 q 0,0.656 -2.788,0.738 -3.444,0.082 -4.182,1.148 -0.246,0.328 -0.328,1.394 v 34.686 q 0,19.352 -18.532,19.352 -9.512,0 -14.76,-5.822 -3.936,-4.346 -3.936,-15.416 v -31.488 q 0,-2.624 -0.82,-3.198 -0.82,-0.574 -5.166,-0.902 -0.902,-0.082 -0.902,-0.656 0,-0.738 1.476,-0.738 0,0 0.656,0 0.738,0.082 1.23,0.082 l 5.084,0.082 q 7.216,0.082 10.66,0 4.592,-0.082 3.608,-0.082 h 1.722 q 1.394,0 1.394,0.82 0,0.738 -2.542,0.738 -3.608,0 -3.854,1.312 -0.164,0.902 -0.164,1.722 v 30.668 q 0,6.642 0.246,8.446 0.574,5.33 3.034,7.708 3.034,2.952 7.954,2.952 5.576,0 8.2,-3.608 3.198,-4.346 3.198,-15.58 v -27.06 q 0,-0.738 0.082,-1.886 0,-1.148 0,-1.394 0,-2.132 -1.23,-2.788 -0.82,-0.492 -3.198,-0.492 -2.952,-0.082 -2.952,-0.984 0,-0.656 1.148,-0.656 1.23,0 3.608,0.164 2.378,0.082 3.608,0.082 0.082,0 1.394,-0.082 1.394,0 2.542,0 h 1.968 q 2.542,0 2.542,0.738 z m 55.10006,42.066 q 0,1.558 -0.082,2.624 -0.328,3.608 -0.246,5.822 l 0.082,5.822 q -10.496,-0.41 -37.966,-0.41 h -3.444 q -3.608,0 -3.608,-0.656 0,-0.656 1.148,-0.656 4.1,-0.082 5.248,-1.148 0.738,-0.656 0.738,-3.936 l -0.082,-44.444 q 0,-2.788 -0.492,-3.444 -0.984,-1.23 -3.034,-1.148 l -2.05,0.082 q -0.902,0 -0.902,-0.656 0,-0.656 1.148,-0.656 0.656,0 1.312,0.082 h 20.828 q 0.41,-0.082 0.902,-0.082 0.82,0 0.82,0.656 0,0.738 -2.132,0.738 -3.034,0 -3.608,0.738 -0.492,0.738 -0.492,6.478 v 19.516 q 0,5.986 0.328,26.814 1.558,0.082 3.526,0.082 8.61,0 11.89,-0.656 5.166,-1.066 7.052,-5.248 0.984,-2.132 1.804,-6.806 0.246,-1.312 0.738,-1.312 0.574,0 0.574,1.804 z M 848.008,247.18 q 0,0.656 -0.656,0.82 -0.574,0.082 -3.116,0.082 -0.656,0 -3.69,-0.082 -6.068,-0.164 -8.364,-0.164 -2.706,0 -4.756,0.082 -4.1,0.164 -5.576,0.164 -2.214,0 -2.214,-0.82 0,-0.82 4.674,-0.902 1.148,0 1.722,-0.164 1.312,-0.164 1.312,-0.984 0,-0.41 -0.984,-3.444 l -1.722,-5.33 q -0.492,-1.804 -2.132,-6.642 h -1.476 l -6.396,-0.082 q -3.444,-0.082 -7.298,0.082 -0.738,1.64 -2.788,7.38 l -1.804,5.33 q -0.41,1.23 -0.41,1.968 0,1.394 1.804,1.804 0.41,0.082 4.018,0.328 1.148,0.082 1.148,0.738 0,0.738 -1.476,0.738 L 794.298,248 q -0.492,0.082 -1.066,0.082 -1.148,0 -1.148,-0.82 0,-0.492 2.542,-0.656 3.28,-0.164 4.182,-1.23 0.902,-1.066 2.952,-6.888 1.558,-4.1 4.51,-12.136 l 9.922,-27.306 q 0.738,-1.804 2.05,-5.658 0.902,-2.788 1.394,-2.788 0.492,0 1.804,3.772 1.64,4.838 14.432,38.212 1.64,4.264 3.28,8.692 1.394,3.772 2.788,4.592 1.066,0.656 5.084,0.574 0.984,0 0.984,0.738 z m -26.076,-19.188 q -0.082,-0.246 -0.574,-1.558 -3.28,-9.512 -4.756,-13.366 -0.41,-1.066 -1.148,-3.116 l -0.492,-1.476 q -1.476,3.526 -3.608,9.758 -2.378,6.97 -3.444,9.758 0.738,0 1.804,-0.082 0.984,0 1.804,0 h 4.592 q 1.886,0 5.822,0.082 z m 88.47395,16.81 q 0,4.592 -5.986,4.592 -7.544,0 -12.054,-4.756 -3.526,-3.69 -4.018,-7.872 l -0.82,-6.724 q -0.82,-6.396 -3.034,-8.938 -2.132,-2.542 -6.97,-2.46 v 18.614 q 0,6.478 0.082,6.97 0,1.394 1.148,1.968 1.148,0.492 4.346,0.492 1.968,0 1.968,0.738 0,0.656 -0.984,0.656 l -7.954,-0.082 q 0,0 -1.312,0 -1.476,0.082 -2.788,0.082 h -5.904 q -0.82,0 -1.886,-0.082 -0.902,0 -1.148,0 l -3.772,0.082 q -1.148,0 -1.148,-0.656 0,-0.738 3.362,-0.902 2.788,-0.164 3.28,-1.312 0.246,-0.574 0.246,-3.444 v -42.23 q 0,-4.264 -0.164,-5.002 -0.164,-0.82 -1.066,-1.23 -1.148,-0.492 -3.69,-0.492 -1.804,0 -1.804,-0.738 0,-0.574 0.738,-0.656 0.738,-0.164 3.936,-0.164 0,0 1.476,0 1.476,0.082 2.87,0.082 h 2.706 q 0.082,0 1.722,-0.082 1.558,0 2.952,0 h 4.756 q 11.48,0 15.662,1.804 3.28,1.394 5.248,4.264 1.968,2.87 1.968,6.314 0,7.872 -8.2,11.644 -3.608,1.64 -10.66,2.46 l -0.082,0.492 q 8.938,0.574 12.956,4.756 4.018,4.1 4.838,13.366 0.656,7.38 2.05,9.266 1.394,1.804 2.87,1.804 1.23,0 1.23,-0.656 0,-0.328 -0.984,-0.902 -0.902,-0.574 -0.902,-1.64 0,-2.214 2.46,-2.214 2.46,0 2.46,2.788 z m -20.746,-41.41 q 0,-10.578 -8.364,-10.578 -2.706,0 -3.362,1.804 -0.41,1.148 -0.41,8.938 v 13.612 q 6.396,0.082 9.266,-3.198 2.87,-3.28 2.87,-10.578 z"
     id="text96"
     style="font-weight:bold;font-size:82px;font-family:'Bodoni 72';-inkscape-font-specification:'Bodoni 72, Bold';letter-spacing:10;text-anchor:middle;fill:#3d3424"
     aria-label="CIRCULAR" />
  <!-- Decorative elements flanking title -->
  <!-- Left title flourishes -->
  <g
     transform="translate(370,185)"
     id="g96">
    <use
       href="#acanthus-scroll-l"
       transform="scale(0.8)"
       id="use96" />
  </g>
  <g
     transform="translate(370,210)"
     id="g97">
    <use
       href="#acanthus-scroll-l"
       transform="scale(1)"
       id="use97" />
  </g>
  <g
     transform="translate(375,235)"
     id="g98">
    <use
       href="#acanthus-scroll-l"
       transform="scale(0.7)"
       id="use98" />
  </g>
  <!-- Right title flourishes -->
  <g
     transform="translate(990,185)"
     id="g99">
    <use
       href="#acanthus-scroll-r"
       transform="scale(0.8)"
       id="use99" />
  </g>
  <g
     transform="translate(972.87059,237.29118)"
     id="g100">
    <use
       href="#acanthus-scroll-r"
       id="use100" />
  </g>
  <g
     transform="translate(988,74.285253)"
     id="g101">
    <use
       href="#acanthus-scroll-r"
       transform="scale(0.7)"
       id="use101" />
  </g>
  <!-- ==================== RIGHT TAGLINE ==================== -->
  <g
     transform="translate(642.18226,61.642626)"
     id="g103">
    <!-- Tagline text block -->
    <text
       x="60"
       y="0"
       text-anchor="middle"
       font-family="Georgia, 'Palatino Linotype', serif"
       font-size="12.5px"
       fill="#3d3424"
       font-style="italic"
       id="text101">Conducted for the Benefit of</text>
    <text
       x="60"
       y="18"
       text-anchor="middle"
       font-family="Georgia, 'Palatino Linotype', serif"
       font-size="12.5px"
       fill="#3d3424"
       font-style="italic"
       id="text102">Persons of Discernment &amp;</text>
    <text
       x="60"
       y="36"
       text-anchor="middle"
       font-family="Georgia, 'Palatino Linotype', serif"
       font-size="12.5px"
       fill="#3d3424"
       font-style="italic"
       id="text103">Enquiring Disposition</text>
  </g>
  <!-- ==================== DECORATIVE DIVIDER BELOW TITLE ==================== -->
  <line
     x1="80"
     y1="268"
     x2="1120"
     y2="268"
     stroke="#3D3424"
     stroke-width="1.5"
     id="line103" />
  <line
     x1="80"
     y1="272"
     x2="1120"
     y2="272"
     stroke="#3D3424"
     stroke-width="0.5"
     id="line104" />
  <!-- Central ornament on divider -->
  <g
     transform="translate(600,270)"
     id="g104">
    <circle
       cx="0"
       cy="0"
       r="10"
       fill="url(#paper)"
       stroke="#3D3424"
       stroke-width="1.2"
       id="circle104" />
    <!-- Star inside circle -->
    <polygon
       points="0,-6 1.5,-2 6,-2 2.5,1 4,5.5 0,3 -4,5.5 -2.5,1 -6,-2 -1.5,-2"
       fill="#3D3424"
       id="polygon104" />
  </g>
  <!-- Side ornaments on divider -->
  <g
     transform="translate(300,270)"
     id="g107">
    <circle
       cx="0"
       cy="0"
       r="5"
       fill="#3D3424"
       id="circle105" />
    <circle
       cx="-12"
       cy="0"
       r="2"
       fill="#3D3424"
       id="circle106" />
    <circle
       cx="12"
       cy="0"
       r="2"
       fill="#3D3424"
       id="circle107" />
  </g>
  <g
     transform="translate(900,270)"
     id="g110">
    <circle
       cx="0"
       cy="0"
       r="5"
       fill="#3D3424"
       id="circle108" />
    <circle
       cx="-12"
       cy="0"
       r="2"
       fill="#3D3424"
       id="circle109" />
    <circle
       cx="12"
       cy="0"
       r="2"
       fill="#3D3424"
       id="circle110" />
  </g>
  <!-- ==================== BOTTOM INFO LINE ==================== -->
  <text
     x="200"
     y="305"
     text-anchor="middle"
     font-family="'Georgia', 'Palatino Linotype', serif"
     font-size="11"
     fill="#3D3424"
     letter-spacing="3"
     font-variant="small-caps"
     id="text110">
    Vol. XXIII. — No. 47.
  </text>
  <text
     x="600"
     y="305"
     text-anchor="middle"
     font-family="'Georgia', 'Palatino Linotype', serif"
     font-size="11"
     fill="#3D3424"
     letter-spacing="3"
     font-variant="small-caps"
     id="text111"
     style="font-style:normal;font-variant:normal;font-weight:normal;font-stretch:normal;font-size:16px;font-family:'Bodoni 72';-inkscape-font-specification:'Bodoni 72, Normal';font-variant-ligatures:normal;font-variant-caps:normal;font-variant-numeric:normal;font-variant-east-asian:normal;letter-spacing:3;text-anchor:middle;display:inline;fill:#3d3424"><tspan
       sodipodi:role="line"
       id="tspan119">New York City</tspan></text>
  <text
     x="1000"
     y="305"
     text-anchor="middle"
     font-family="'Georgia', 'Palatino Linotype', serif"
     font-size="11"
     fill="#3D3424"
     letter-spacing="3"
     font-variant="small-caps"
     id="text112">
    Published Every Fortnight ❦ Price Two Bits
  </text>
  <!-- Small separator dots -->
  <circle
     cx="400"
     cy="302"
     r="2"
     fill="#3D3424"
     id="circle112" />
  <circle
     cx="800"
     cy="302"
     r="2"
     fill="#3D3424"
     id="circle113" />
  <!-- ==================== BOTTOM SCROLLWORK BETWEEN BORDER AND INFO ==================== -->
  <g
     transform="translate(120,315)"
     id="g113">
    <use
       href="#h-scroll"
       transform="scale(0.7)"
       id="use113" />
  </g>
  <g
     transform="translate(280,315)"
     id="g114">
    <use
       href="#h-scroll"
       transform="scale(-0.7,0.7)"
       id="use114" />
  </g>
  <g
     transform="translate(450,315)"
     id="g115">
    <use
       href="#h-scroll"
       transform="scale(0.7)"
       id="use115" />
  </g>
  <g
     transform="translate(600,315)"
     id="g116">
    <use
       href="#h-scroll"
       transform="scale(-0.7,0.7)"
       id="use116" />
  </g>
  <g
     transform="translate(750,315)"
     id="g117">
    <use
       href="#h-scroll"
       transform="scale(0.7)"
       id="use117" />
  </g>
  <g
     transform="translate(900,315)"
     id="g118">
    <use
       href="#h-scroll"
       transform="scale(-0.7,0.7)"
       id="use118" />
  </g>
  <g
     transform="translate(1040,315)"
     id="g119">
    <use
       href="#h-scroll"
       transform="scale(0.7)"
       id="use119" />
  </g>
</svg>
